<mxfile host="drawio.corp.amazon.com" agent="Mozilla/5.0 (Macintosh; Intel Mac OS X 10.15; rv:141.0) Gecko/20100101 Firefox/141.0" modified="2025-08-26T17:36:30.466Z" etag="MxI6wHIk3f-_IRDDx0K4" version="21.7.4" type="device">
  <diagram name="Cross-Account" id="ZkYitxJmLkKsOqj5DzkQ">
    <mxGraphModel dx="4132" dy="1614" grid="1" gridSize="10" guides="1" tooltips="1" connect="1" arrows="1" fold="1" page="1" pageScale="1" pageWidth="1169" pageHeight="827" math="0" shadow="0">
      <root>
        <mxCell id="mSo4SpXh3Oxkku4YhKdE-0" />
        <mxCell id="mSo4SpXh3Oxkku4YhKdE-1" parent="mSo4SpXh3Oxkku4YhKdE-0" />
        <mxCell id="hJH79LYfBog7g-wVBzW--2" value="" style="rounded=0;whiteSpace=wrap;html=1;" parent="mSo4SpXh3Oxkku4YhKdE-1" vertex="1">
          <mxGeometry x="-610" width="2280" height="1290" as="geometry" />
        </mxCell>
        <mxCell id="mSo4SpXh3Oxkku4YhKdE-2" value="AWS Cloud" style="points=[[0,0],[0.25,0],[0.5,0],[0.75,0],[1,0],[1,0.25],[1,0.5],[1,0.75],[1,1],[0.75,1],[0.5,1],[0.25,1],[0,1],[0,0.75],[0,0.5],[0,0.25]];outlineConnect=0;gradientColor=none;html=1;whiteSpace=wrap;fontSize=12;fontStyle=0;shape=mxgraph.aws4.group;grIcon=mxgraph.aws4.group_aws_cloud_alt;strokeColor=#232F3E;fillColor=none;verticalAlign=top;align=left;spacingLeft=30;fontColor=#232F3E;dashed=1;labelBackgroundColor=#ffffff;container=1;pointerEvents=0;collapsible=0;recursiveResize=0;" parent="mSo4SpXh3Oxkku4YhKdE-1" vertex="1">
          <mxGeometry x="-480" y="40" width="2110" height="1240" as="geometry" />
        </mxCell>
        <mxCell id="21-ClnMXErFcT0ocVqcD-4" value="Git Repository Account" style="points=[[0,0],[0.25,0],[0.5,0],[0.75,0],[1,0],[1,0.25],[1,0.5],[1,0.75],[1,1],[0.75,1],[0.5,1],[0.25,1],[0,1],[0,0.75],[0,0.5],[0,0.25]];outlineConnect=0;gradientColor=none;html=1;whiteSpace=wrap;fontSize=12;fontStyle=0;container=1;pointerEvents=0;collapsible=0;recursiveResize=0;shape=mxgraph.aws4.group;grIcon=mxgraph.aws4.group_account;strokeColor=#CD2264;fillColor=default;verticalAlign=top;align=left;spacingLeft=30;fontColor=#CD2264;dashed=0;" parent="mSo4SpXh3Oxkku4YhKdE-2" vertex="1">
          <mxGeometry x="890" y="29" width="550" height="331" as="geometry" />
        </mxCell>
        <mxCell id="21-ClnMXErFcT0ocVqcD-8" style="edgeStyle=orthogonalEdgeStyle;rounded=0;orthogonalLoop=1;jettySize=auto;html=1;entryX=0.5;entryY=0;entryDx=0;entryDy=0;" parent="mSo4SpXh3Oxkku4YhKdE-2" source="mSo4SpXh3Oxkku4YhKdE-5" target="mSo4SpXh3Oxkku4YhKdE-50" edge="1">
          <mxGeometry relative="1" as="geometry" />
        </mxCell>
        <mxCell id="mSo4SpXh3Oxkku4YhKdE-5" value="Approver" style="sketch=0;outlineConnect=0;fontColor=#232F3E;gradientColor=none;fillColor=#232F3D;strokeColor=none;dashed=0;verticalLabelPosition=bottom;verticalAlign=top;align=center;html=1;fontSize=12;fontStyle=0;aspect=fixed;pointerEvents=1;shape=mxgraph.aws4.user;" parent="mSo4SpXh3Oxkku4YhKdE-2" vertex="1">
          <mxGeometry x="1460" y="39" width="78" height="78" as="geometry" />
        </mxCell>
        <mxCell id="mSo4SpXh3Oxkku4YhKdE-6" value="" style="edgeStyle=orthogonalEdgeStyle;rounded=0;orthogonalLoop=1;jettySize=auto;html=1;" parent="mSo4SpXh3Oxkku4YhKdE-2" source="mSo4SpXh3Oxkku4YhKdE-7" target="mSo4SpXh3Oxkku4YhKdE-30" edge="1">
          <mxGeometry relative="1" as="geometry" />
        </mxCell>
        <mxCell id="mSo4SpXh3Oxkku4YhKdE-7" value="Step Functions" style="points=[[0,0],[0.25,0],[0.5,0],[0.75,0],[1,0],[1,0.25],[1,0.5],[1,0.75],[1,1],[0.75,1],[0.5,1],[0.25,1],[0,1],[0,0.75],[0,0.5],[0,0.25]];outlineConnect=0;gradientColor=none;html=1;whiteSpace=wrap;fontSize=12;fontStyle=0;container=0;pointerEvents=0;collapsible=0;recursiveResize=0;shape=mxgraph.aws4.group;grIcon=mxgraph.aws4.group_aws_step_functions_workflow;strokeColor=#CD2264;fillColor=default;verticalAlign=top;align=left;spacingLeft=30;fontColor=#CD2264;dashed=0;" parent="mSo4SpXh3Oxkku4YhKdE-2" vertex="1">
          <mxGeometry x="190" y="562" width="600" height="248" as="geometry" />
        </mxCell>
        <mxCell id="mSo4SpXh3Oxkku4YhKdE-8" value="&lt;div&gt;ECS/EC2&lt;/div&gt;&lt;div&gt;Git Repository&lt;/div&gt;" style="sketch=0;points=[[0,0,0],[0.25,0,0],[0.5,0,0],[0.75,0,0],[1,0,0],[0,1,0],[0.25,1,0],[0.5,1,0],[0.75,1,0],[1,1,0],[0,0.25,0],[0,0.5,0],[0,0.75,0],[1,0.25,0],[1,0.5,0],[1,0.75,0]];outlineConnect=0;fontColor=#232F3E;fillColor=#ED7100;strokeColor=#ffffff;dashed=0;verticalLabelPosition=bottom;verticalAlign=top;align=center;html=1;fontSize=12;fontStyle=0;aspect=fixed;shape=mxgraph.aws4.resourceIcon;resIcon=mxgraph.aws4.ecs;" parent="mSo4SpXh3Oxkku4YhKdE-2" vertex="1">
          <mxGeometry x="1150.0000000000002" y="220" width="78" height="78" as="geometry" />
        </mxCell>
        <mxCell id="mSo4SpXh3Oxkku4YhKdE-9" style="edgeStyle=orthogonalEdgeStyle;rounded=0;orthogonalLoop=1;jettySize=auto;html=1;exitX=1;exitY=0.5;exitDx=0;exitDy=0;exitPerimeter=0;" parent="mSo4SpXh3Oxkku4YhKdE-2" source="mSo4SpXh3Oxkku4YhKdE-42" target="mSo4SpXh3Oxkku4YhKdE-40" edge="1">
          <mxGeometry relative="1" as="geometry">
            <mxPoint x="1083.5" y="916.0588235294122" as="sourcePoint" />
            <Array as="points">
              <mxPoint x="1164" y="926" />
            </Array>
          </mxGeometry>
        </mxCell>
        <mxCell id="mSo4SpXh3Oxkku4YhKdE-25" style="edgeStyle=orthogonalEdgeStyle;rounded=0;orthogonalLoop=1;jettySize=auto;html=1;entryX=0;entryY=0.5;entryDx=0;entryDy=0;entryPerimeter=0;" parent="mSo4SpXh3Oxkku4YhKdE-2" source="mSo4SpXh3Oxkku4YhKdE-26" target="mSo4SpXh3Oxkku4YhKdE-8" edge="1">
          <mxGeometry relative="1" as="geometry">
            <Array as="points">
              <mxPoint x="590" y="470" />
              <mxPoint x="920" y="470" />
              <mxPoint x="920" y="259" />
            </Array>
          </mxGeometry>
        </mxCell>
        <mxCell id="OeRLj1Lq7jxSstJOr_a3-7" style="edgeStyle=orthogonalEdgeStyle;rounded=0;orthogonalLoop=1;jettySize=auto;html=1;entryX=0.5;entryY=0;entryDx=0;entryDy=0;entryPerimeter=0;" parent="mSo4SpXh3Oxkku4YhKdE-2" source="mSo4SpXh3Oxkku4YhKdE-26" target="mSo4SpXh3Oxkku4YhKdE-24" edge="1">
          <mxGeometry relative="1" as="geometry">
            <Array as="points">
              <mxPoint x="534" y="665" />
            </Array>
          </mxGeometry>
        </mxCell>
        <mxCell id="mSo4SpXh3Oxkku4YhKdE-26" value="&lt;div&gt;Lambda&lt;/div&gt;&lt;div&gt;ParseFortifyFindings&lt;/div&gt;" style="outlineConnect=0;dashed=0;verticalLabelPosition=bottom;verticalAlign=top;align=center;html=1;shape=mxgraph.aws3.lambda_function;fillColor=#F58534;gradientColor=none;" parent="mSo4SpXh3Oxkku4YhKdE-2" vertex="1">
          <mxGeometry x="560" y="629" width="69" height="72" as="geometry" />
        </mxCell>
        <mxCell id="mSo4SpXh3Oxkku4YhKdE-30" value="Remediation&lt;br&gt;Step Functions" style="points=[[0,0],[0.25,0],[0.5,0],[0.75,0],[1,0],[1,0.25],[1,0.5],[1,0.75],[1,1],[0.75,1],[0.5,1],[0.25,1],[0,1],[0,0.75],[0,0.5],[0,0.25]];outlineConnect=0;gradientColor=none;html=1;whiteSpace=wrap;fontSize=12;fontStyle=0;container=0;pointerEvents=0;collapsible=0;recursiveResize=0;shape=mxgraph.aws4.group;grIcon=mxgraph.aws4.group_aws_step_functions_workflow;strokeColor=#CD2264;fillColor=default;verticalAlign=top;align=left;spacingLeft=30;fontColor=#CD2264;dashed=0;" parent="mSo4SpXh3Oxkku4YhKdE-2" vertex="1">
          <mxGeometry x="830" y="559.75" width="1240" height="250" as="geometry" />
        </mxCell>
        <mxCell id="mSo4SpXh3Oxkku4YhKdE-31" style="edgeStyle=orthogonalEdgeStyle;rounded=0;orthogonalLoop=1;jettySize=auto;html=1;entryX=0;entryY=0.75;entryDx=0;entryDy=0;startArrow=classic;startFill=1;entryPerimeter=0;" parent="mSo4SpXh3Oxkku4YhKdE-2" source="mSo4SpXh3Oxkku4YhKdE-32" target="mSo4SpXh3Oxkku4YhKdE-8" edge="1">
          <mxGeometry relative="1" as="geometry">
            <mxPoint x="1160" y="552.25" as="targetPoint" />
            <Array as="points">
              <mxPoint x="950" y="540" />
              <mxPoint x="1050" y="540" />
              <mxPoint x="1050" y="278" />
            </Array>
          </mxGeometry>
        </mxCell>
        <mxCell id="mSo4SpXh3Oxkku4YhKdE-32" value="&lt;div&gt;Lambda&lt;/div&gt;&lt;div&gt;GitGrabFile&lt;/div&gt;" style="outlineConnect=0;dashed=0;verticalLabelPosition=bottom;verticalAlign=top;align=center;html=1;shape=mxgraph.aws3.lambda_function;fillColor=#F58534;gradientColor=none;" parent="mSo4SpXh3Oxkku4YhKdE-2" vertex="1">
          <mxGeometry x="915" y="640.25" width="69" height="72" as="geometry" />
        </mxCell>
        <mxCell id="mSo4SpXh3Oxkku4YhKdE-33" style="edgeStyle=orthogonalEdgeStyle;rounded=0;orthogonalLoop=1;jettySize=auto;html=1;" parent="mSo4SpXh3Oxkku4YhKdE-2" source="mSo4SpXh3Oxkku4YhKdE-34" target="mSo4SpXh3Oxkku4YhKdE-42" edge="1">
          <mxGeometry relative="1" as="geometry">
            <mxPoint x="1044.5" y="877" as="targetPoint" />
          </mxGeometry>
        </mxCell>
        <mxCell id="21-ClnMXErFcT0ocVqcD-10" value="&amp;nbsp;" style="edgeLabel;html=1;align=center;verticalAlign=middle;resizable=0;points=[];" parent="mSo4SpXh3Oxkku4YhKdE-33" vertex="1" connectable="0">
          <mxGeometry x="-0.3079" relative="1" as="geometry">
            <mxPoint y="-37" as="offset" />
          </mxGeometry>
        </mxCell>
        <mxCell id="mSo4SpXh3Oxkku4YhKdE-34" value="&lt;div&gt;Lambda&lt;/div&gt;CodeRemediationBedrock" style="outlineConnect=0;dashed=0;verticalLabelPosition=bottom;verticalAlign=top;align=center;html=1;shape=mxgraph.aws3.lambda_function;fillColor=#F58534;gradientColor=none;" parent="mSo4SpXh3Oxkku4YhKdE-2" vertex="1">
          <mxGeometry x="1024.25" y="634.25" width="69" height="72" as="geometry" />
        </mxCell>
        <mxCell id="hJH79LYfBog7g-wVBzW--0" style="edgeStyle=orthogonalEdgeStyle;rounded=0;orthogonalLoop=1;jettySize=auto;html=1;entryX=1;entryY=0.75;entryDx=0;entryDy=0;entryPerimeter=0;" parent="mSo4SpXh3Oxkku4YhKdE-2" source="mSo4SpXh3Oxkku4YhKdE-36" target="mSo4SpXh3Oxkku4YhKdE-8" edge="1">
          <mxGeometry relative="1" as="geometry">
            <Array as="points">
              <mxPoint x="1180" y="540" />
              <mxPoint x="1248" y="540" />
              <mxPoint x="1248" y="278" />
            </Array>
          </mxGeometry>
        </mxCell>
        <mxCell id="mSo4SpXh3Oxkku4YhKdE-36" value="&lt;div&gt;Lambda&lt;/div&gt;&lt;div&gt;GitBranchCRUD&lt;/div&gt;" style="outlineConnect=0;dashed=0;verticalLabelPosition=bottom;verticalAlign=top;align=center;html=1;shape=mxgraph.aws3.lambda_function;fillColor=#F58534;gradientColor=none;" parent="mSo4SpXh3Oxkku4YhKdE-2" vertex="1">
          <mxGeometry x="1154.25" y="634.25" width="69" height="72" as="geometry" />
        </mxCell>
        <mxCell id="mSo4SpXh3Oxkku4YhKdE-40" value="&lt;div&gt;Cloudwatch Logs&lt;/div&gt;&lt;div&gt;Invocation Logs&lt;/div&gt;" style="sketch=0;outlineConnect=0;fontColor=#232F3E;gradientColor=none;fillColor=#E7157B;strokeColor=none;dashed=0;verticalLabelPosition=bottom;verticalAlign=top;align=center;html=1;fontSize=12;fontStyle=0;aspect=fixed;pointerEvents=1;shape=mxgraph.aws4.cloudwatch_logs;" parent="mSo4SpXh3Oxkku4YhKdE-2" vertex="1">
          <mxGeometry x="1125.5" y="1027" width="78" height="58" as="geometry" />
        </mxCell>
        <mxCell id="mSo4SpXh3Oxkku4YhKdE-43" style="edgeStyle=orthogonalEdgeStyle;rounded=0;orthogonalLoop=1;jettySize=auto;html=1;dashed=1;" parent="mSo4SpXh3Oxkku4YhKdE-2" source="mSo4SpXh3Oxkku4YhKdE-46" edge="1">
          <mxGeometry relative="1" as="geometry">
            <mxPoint x="1055" y="629.75" as="targetPoint" />
            <Array as="points">
              <mxPoint x="1680" y="602.75" />
              <mxPoint x="1055" y="602.75" />
            </Array>
          </mxGeometry>
        </mxCell>
        <mxCell id="mSo4SpXh3Oxkku4YhKdE-44" value="2x Retries if needed" style="edgeLabel;html=1;align=center;verticalAlign=middle;resizable=0;points=[];" parent="mSo4SpXh3Oxkku4YhKdE-43" vertex="1" connectable="0">
          <mxGeometry x="-0.5721" y="2" relative="1" as="geometry">
            <mxPoint x="54" y="-2" as="offset" />
          </mxGeometry>
        </mxCell>
        <mxCell id="mSo4SpXh3Oxkku4YhKdE-45" style="edgeStyle=orthogonalEdgeStyle;rounded=0;orthogonalLoop=1;jettySize=auto;html=1;" parent="mSo4SpXh3Oxkku4YhKdE-2" source="mSo4SpXh3Oxkku4YhKdE-46" target="mSo4SpXh3Oxkku4YhKdE-59" edge="1">
          <mxGeometry relative="1" as="geometry" />
        </mxCell>
        <mxCell id="mSo4SpXh3Oxkku4YhKdE-46" value="Lambda&lt;br&gt;VerifyFindingsResolved" style="outlineConnect=0;dashed=0;verticalLabelPosition=bottom;verticalAlign=top;align=center;html=1;shape=mxgraph.aws3.lambda_function;fillColor=#F58534;gradientColor=none;" parent="mSo4SpXh3Oxkku4YhKdE-2" vertex="1">
          <mxGeometry x="1640" y="633.25" width="69" height="72" as="geometry" />
        </mxCell>
        <mxCell id="mSo4SpXh3Oxkku4YhKdE-49" style="edgeStyle=orthogonalEdgeStyle;rounded=0;orthogonalLoop=1;jettySize=auto;html=1;" parent="mSo4SpXh3Oxkku4YhKdE-2" source="mSo4SpXh3Oxkku4YhKdE-61" target="mSo4SpXh3Oxkku4YhKdE-8" edge="1">
          <mxGeometry relative="1" as="geometry">
            <mxPoint x="1205.7200000000003" y="293" as="targetPoint" />
            <Array as="points">
              <mxPoint x="1300" y="259" />
            </Array>
          </mxGeometry>
        </mxCell>
        <mxCell id="mSo4SpXh3Oxkku4YhKdE-50" value="" style="shape=image;verticalLabelPosition=bottom;labelBackgroundColor=default;verticalAlign=top;aspect=fixed;imageAspect=0;image=data:image/png,iVBORw0KGgoAAAANSUhEUgAAAVsAAACRCAMAAABaFeu5AAAA5FBMVEX////wUTNBMAA/LgA3IwA5JgA+LADu7elEMwDvRB7vRyQ8KgCIgHA1IAAtFABbTCj3r6adl4jh39n60MsyHADb2dJoXD8vFwAzHQDwTi7vRSHU0cinoZMsEgD29vT/+vnAvbb839rvQBb1kYH5v7YpDQDzd2Lyb1j3p5u7tqv2m43719L0iHfzdmH4uK71j3/95+RcTzP6yMBKOhPvPA3yaFAnCACqpZ6Si3v2n5Lzfmp7cmJvZExjV0H+8/HxX0QjAABfUjFWSC2Hf3FPQB54bldJOACUjYIbAABwZEpMPRtgVT7vQLuMAAAP9UlEQVR4nO2dfUPaSBDGScgLJAQEAwECIaJW0bZWqcoVqq2Fer1+/+9zgOVtd3Z2s0lAvHv+u14Swo/xye7s7CSTSUKdTzcnlw+JXGp3Cqq9+6lCs7PrO1nTp2Ol22zmu7cnu74TeXV6I9erO5rmuKe5QnXXt7PQiWUpczXyZ/sau9Un11YXMjS3sOsbetFFV1mq0fi069uRUvjNUDfklIJd39NUF3llTQ1lH+H6RZWUXtr1TU3RNhVl3+EGfYNiq7rlXd/WcV4h1LD2Dm6rTqOdwjV3e1cXFNpZ5B7t9qYiKweE7dRyWzu9KdIQ9tMWqm0IrWqPdnlTtCHspS30QEtQjf4OTQEyhMVQbJ9sYaCBbFWnsrNbgg1hDz13osNsizubnR0jaPfLFlhsPX9HN8Ty2hXcvYncQnS2fmtNYcL3g0ftftnCM8NvPbbfDtrOUu2Ecw98tHv0QGOME7JZ9jhhuBbqerJsj7oNPlulkd8PuIzxrfGbfcpXIzW2mcuGENw9iVw7C7HVBswTglw2PbaZy/wbglt2ItqtuR7pibPNHFlCcLv7ANdUgYSChiDruamyfVO20PNot80hyfGyli7bzGXz7cAdkI8z28EmZSUjDbbrS6BHYnD3whZazvoEwnBLWC7BvFNTYHvxYR2uqC1cJvPhqapS0DzNNoysrTvt63v02M0BcUJsL5rWu/X/vhR7oO2FLWTM8HlU+tmvDVu8/Ne1kTzbq7yiWGfr/yJoC/l9iFxhVTeHbImwvZqnZ6x3ErZgvSW4Qz1xtoscAgFX0BbeDtwqkX5IgO37ZXqGsAUxuG/HFn7bSbN9v5avtc42hmJCtqC8FbhlV02Y7dVGUtF6s0MxrugpXFy274l8LRG5VsPKN5tN3B3exAOtR0ZtbLYk2inc2w24ZweHl5c3F7f4kKy773CDApDqjceWRktG7kKHt+iCxJ5Hbm8Mrf7EYguhZcHN/IWtUe6zLVRa/TpY26SqgzKlgVhtwxdGKG7awlInaOSmaAtBYP5REAgXzy7PgbQ4yPRbP3KnDrg6MY9cjdI3ofV3OGqRyD1HV9etQ9GvLa6gErYKo+ucVvfa7VNPz42vR4VeVQRwoW6zpC/XIu88R2eChSVU2/DeQjjBkXuLPdAaScM1e5O+4zq6bSy/fjZr2Hrd6deY+r746iObiSebW7Bl1C/EZcsyhD9wH6H9DZd4WUg3Sbjh5LRuM2xwSpildvhyeueJce4W2H5BonbO6QY66wyfS+QTg9srFdlxh8kNXy5g5th/6ymz5aFVuuBp5/hpSdmCP3bZUSfGtkJPBbbElou28QE875BTK5aILZi/2rJkV2x9ehFyO2y5aJXGFXjiEffE+HCrfYlvvNSCbQusTHhRmmz5aBXrGDzzk8CZMeGGjnzQqiu2rLLmmVJk+44PSGm8B0894nmCwnoKCqP1Io43CS3YDpFHYXpsRdAqjUfwXHxqlgBcPybaJdtrJPpTYytgCHNA4P5dbL6xUlMabmDEMgR1yTa400TGt1r0X5LNtvNBDK1ifYROF0uWK3lZuKM4j7GXr/7CNlMd9Ossciu27fqijhm0Z8Ohxc4niKJlmYLYGpqsLQD56cW31LXp99fZ87Tp/6+7Xtuph8ur+YN/iuBvtWJbXajSAuDaw0qVFiuZIYx2GrgH4BXEVn/lIjfow4Gme8XSj9n+gx+logs9o0q1yXO51Qv9tRTX/IL+EPq1VmxXqtCbqiPlb4UN4QUunDQUXaCUgAuHra5NwuUhQfjLJX+ALLYVD7pmCmw7Z1HQMrMDgnAlbAHcfesNCRB+jgxdHdtDCrhCCmwjRe1MzXPwOmlFLtDrYIqW3tdsjkm4Xo991RL9gyXONmrUzmQpYOimBBfaDQZSM1XCFrIOO1u+BbYyaKeRu3ygHa2Pd48UMVuI1kEI6CPB+HY+aaLI7pD02XZuZdCuDRYOHyUqbiJ5bgUYBbmMeKwRrpBVmY+z1NnKRe0G289S5UwRIhcqvmCFY0ge6zIdN222klG7wTZPFIUkbgtA5oo5vwzIDY/sdhMps5VGu8GWWKD8JGgLwnDpzFWWvaOGNAWV+TRLl6082k22ZDlTwrbwlYJgf2Ue/IMcUzBDPFW2D/JoCbZk5AraApj1oRTQWUF9yDy6TBqIw9okkibbGFFLsaVtwcrnu3lOikEMbkAveiNsqSUb7ZlxZIpsY6Gl2JK2cHt+eHl0c36L714XsoVgTCVqorC1J4wj02P78BgHLc12ChdKmn86w2vFBCIXiFs7gifYNcaRqbF9QKuMZNgqDbic6SP6G4rApf3WYD/LhuSzbOtsO/GiFmTLqhW77GIXEoBLF3BlVeYYjMwosAe4abGVnI3hbJUGWCuWuUHXgPnjXCoUkYFVSO9NYE3hUmKL9fmKwXZqCyDcK/SX5LZhAfpIMB9m1NRh22Owh9hoGWwZkYsXhjTOgFPWRSW3pmrDRdpA6mGxdk4pHbb44yUOWyUPLqa9Rx+cnzmBaxr0apnxBB1ZBRZwT1mJsHTYvos3RsDYNsHedjd4SS+8irES/Yc+nRKM6MeZD3T4gX+E9Ng+xkbLZNsAPxCvxGt8wdFm7qFuXto12aajBdWPspPj6bCNj5bpt7fgBz7gO/x4hhucAmxV252Eq9itlHNggaLLbJSSDtvb9NjCmDrotRrvwJPWxKg9tL12bVZ+0HoeqW24FMlmd1NLh+1Van7LKLrB49a64LE1mXWd87IaR4NbqamrSqWtscUH83HYKhb4gbjfCmyGKMP9E7mykdcKpMO28xg7cJnjBLDmBh/0wc+/TV3LbSBBGtWlNS87iR24zLj9C/q8D9hvKbS4Y0qV3wL1Iamz5bYJlmarKMDE7BIb3lpwITopvx0dbh1NBaaWY2RvK43J1gL2mmAWZPEGYAuFVCkdTw7+RoH0cuMx4bLjll5LOMb2sMIbhCH5drT6Zpe14JA625hw2WyVPJGRZb+3gJnyhWXWIpiuccquVnpRmmuRseAibJXu1Zrnoos6EaJ2rt6TKFxNDXkXi8P2B+/iVzHgYmwVq3HwkrLpHF1gDYmjosU33q1/d7fAf8FIDLbIet1CV/KjBZTtjO7t++PjL48WNrCVQIvsxV0B0u6GIi044rAVeO+OPFwO21n/KsvC62sseGcwos2WtdCuqKytueOy2EtxYrA1+gJNMKThctnyrxAd7ca31L+Oi96sP8VL5jxr6Fq9bYzKwm9tEWULtdT3RH4+Wbix2QqPa5cabCwzGuMgMMPWoPa9lKt/8zT1+/BZrKfKQoJsTYhtHan1X0lyhhaXrcXNK5IiNi3Ff/ONIFsweWxcC32EHNyYbKOjHW1mwpCqJVGJsoXfViAUuHJw47GNbgiFTbTZevz3vQqyzfwEx9R6SBzmD8l/mUkGbiy20aN2QAy+BMMGlShbaCV0eqg78Re/b1DtjXQXnmNLwO2u2KIlSSBa3tojpTIxDmLWeEWRKFuqWnoRuV6xNBz+mNR+nhad2cKHA35MVLiN5l/Lae2nx4jTu+hRG5KPEyOJ1zqKskXmgoaurzUpc+HHazS41uNGFQLe1S4+2oDuOjX+/msyKN/3Qr9akXVeCJkGsK0izYM2A5mRwcGSVaQa5FxVqOnHAm1kQ8g80xQMw9ZfNu977dM7JzeuTQrP5V5Ynbdm5F8yMH2wI4M9CqcXII6FXkENyXhifLI4XKDmSzxyJdAG8HuK15WdsdY0x/Xarp67HhZ6VaZr9FqF4XXO9eAFONv11KdRodxbOx+oo4TFrIUQhtsElmVFK6Ul0AJlnzzQtl6vZ58KPYhv8PdGH0fG+drfa96JdRTbkMZ8n7ogXLDCiNOPMQ5auspekLBev6vReANoTzutjecS1j5oXchsTQwuXE3A6ccYAy3zvZkCsuvagKArw9YHa6YAFdnjFyG4efBUTj/GGGjjsJ1K0zf/UGXYZgpiKXnVQaY0aHfrF8n2YxReLKckuNbAxlRajyYptpnfYo8zHZvT8CO3AfcMPOIOw5qSaMUfJcxvnFtbhpBja4It3QkZ3hirNclc8Gawsv0Ym3KGMKNBbb2JKnttmUCObSbgtTA1nLtSyPkmPFtgFCLz+jHKGsJM8DtJo0hbZSQl2U7Hxf068zc2tPoT9xVoM7h45DKqQPGqe3lDmOPoyxXagaik2WaC1tgDinxtzXW/iq4kceDC/Rix2pk4hjBXxYkLd7UwG3yj3x4ACGwA2PGfx3dtr67p86b6s3ngnVYrhxEyR7gtgG3t8MLwWFE7k/k7cjEYoWWxaAC89QIS8y+84vfKw8mv2qQwuA8jLdDNdY5FLmgKB5glxEY7Ve+feHAd9Am+TaG2AJTYPmCOkE8ALdrdXkQi1RpbEprYolunYTPeJKI2U2U1ChWWl8BdJCTUFgi4HawrcRMeD0cTgdaYZbIixnE7iaWKhITCbZ6vZccvsX4B+STQmpvlSfbvH5Na3yietj3PrTvanDQPdfx6hgSF2oKlnP8Zih2+wyoVm/AbCyKqtDEEW7aqCypVP+zdPxdG38fzpGvddXRWapa5ZXonQiNXsbq3xxcXXyyMbDKGkBlszsvqYAQGplnxw9bwdxaexYlVGW1NONyXSkX0iEQMgdzir3Fqts0W2E38lbHlweUpGbRkSxV+RU0F2iXJ7su4Ix3E2SrV5G4lFVL1bjNsmWtSK0EZ39fltzPFiNx8MmjJ5TKR5z35iu2ZisJ1uVuTNNyEDIEqfxEZp0INc++i1v9vQZK2kFTUZjqEeTIa1WwIaHBjIJumd6cDmchNDG3GJFaqRHwT6E/O7GS1W0nATQ4t9fctUMIIWQLSR2GnimwLCaKlQbm8bKEJ1G8JbazZiSJGbpJoKU+YDnAHKKdeFkiZOaxGrbvXwecIaLtJos1k6ASBpjJXBSr3Y2jFMAvVfr4WfRS3hUSjNgOWxGe19s/BffinGrQTzGT6vXLNLsLvPeT6yE71UdQW8mDjjxiCy2qyuuO2tZ+lqfqqYWjF2RIhqyOQ3U/4nhLWRzFbSBxtxryDgc0JGzPxUrdZR2R77y4lZAvJo52OVmPV2qmvMZVASQBuGmjBVpdRdPfaMmCQuLaQCtrpqAraUSsqI4mtaFsQJ3JTQktvL4sgZ/z68l+wULipoZ3ClXzDvOEVXmH6i6ETti3keV1s48jvSxQtZb3Sa1rc5Yo5zu2miXaqlhHxdei2298Pp12J0W4w1aidK2g9ecLVNbrrrL0DdW90AkVu+mhn8gs/Tx0e36ytFfUhuLfs9QuAm7YhrFS5L/x06u6sBNZY1S1lpzJmFbFu3bFrZX9/HmCkqO2724napYKq3ytPRtfjvqrPZau5/tP111GhHLL3mu6JiMjdMtqlAtM0KzOZJrXBeX918rmxC0P4b+hQWdQuWla0d+3+L64eLpp5y7Ly+SvwZRn/K5Yebj4efLwBN+38h/UvTmOoMnB3lK4AAAAASUVORK5CYII=;" parent="mSo4SpXh3Oxkku4YhKdE-2" vertex="1">
          <mxGeometry x="1121.16" y="158.5" width="126.84" height="53" as="geometry" />
        </mxCell>
        <mxCell id="OeRLj1Lq7jxSstJOr_a3-6" style="edgeStyle=orthogonalEdgeStyle;rounded=0;orthogonalLoop=1;jettySize=auto;html=1;entryX=0.75;entryY=0;entryDx=0;entryDy=0;entryPerimeter=0;" parent="mSo4SpXh3Oxkku4YhKdE-2" source="mSo4SpXh3Oxkku4YhKdE-52" target="mSo4SpXh3Oxkku4YhKdE-24" edge="1">
          <mxGeometry relative="1" as="geometry">
            <Array as="points">
              <mxPoint x="660" y="666" />
              <mxPoint x="660" y="889" />
              <mxPoint x="553" y="889" />
            </Array>
          </mxGeometry>
        </mxCell>
        <mxCell id="mSo4SpXh3Oxkku4YhKdE-52" value="&lt;div&gt;Lambda&lt;/div&gt;&lt;div&gt;DynamoDBTableScan&lt;/div&gt;" style="outlineConnect=0;dashed=0;verticalLabelPosition=bottom;verticalAlign=top;align=center;html=1;shape=mxgraph.aws3.lambda_function;fillColor=#F58534;gradientColor=none;" parent="mSo4SpXh3Oxkku4YhKdE-2" vertex="1">
          <mxGeometry x="690" y="630" width="69" height="72" as="geometry" />
        </mxCell>
        <mxCell id="mSo4SpXh3Oxkku4YhKdE-55" style="edgeStyle=orthogonalEdgeStyle;rounded=0;orthogonalLoop=1;jettySize=auto;html=1;entryX=0;entryY=0.5;entryDx=0;entryDy=0;entryPerimeter=0;" parent="mSo4SpXh3Oxkku4YhKdE-2" source="mSo4SpXh3Oxkku4YhKdE-59" target="mSo4SpXh3Oxkku4YhKdE-63" edge="1">
          <mxGeometry relative="1" as="geometry">
            <Array as="points">
              <mxPoint x="1870" y="668.75" />
              <mxPoint x="1870" y="603.75" />
            </Array>
          </mxGeometry>
        </mxCell>
        <mxCell id="mSo4SpXh3Oxkku4YhKdE-56" value="Yes" style="edgeLabel;html=1;align=center;verticalAlign=middle;resizable=0;points=[];" parent="mSo4SpXh3Oxkku4YhKdE-55" vertex="1" connectable="0">
          <mxGeometry x="0.1057" y="-1" relative="1" as="geometry">
            <mxPoint x="-3" y="24" as="offset" />
          </mxGeometry>
        </mxCell>
        <mxCell id="mSo4SpXh3Oxkku4YhKdE-57" style="edgeStyle=orthogonalEdgeStyle;rounded=0;orthogonalLoop=1;jettySize=auto;html=1;" parent="mSo4SpXh3Oxkku4YhKdE-2" source="mSo4SpXh3Oxkku4YhKdE-59" target="mSo4SpXh3Oxkku4YhKdE-64" edge="1">
          <mxGeometry relative="1" as="geometry">
            <Array as="points">
              <mxPoint x="1870" y="668.75" />
              <mxPoint x="1870" y="733.75" />
            </Array>
          </mxGeometry>
        </mxCell>
        <mxCell id="mSo4SpXh3Oxkku4YhKdE-58" value="No" style="edgeLabel;html=1;align=center;verticalAlign=middle;resizable=0;points=[];" parent="mSo4SpXh3Oxkku4YhKdE-57" vertex="1" connectable="0">
          <mxGeometry x="0.0142" relative="1" as="geometry">
            <mxPoint y="-21" as="offset" />
          </mxGeometry>
        </mxCell>
        <mxCell id="mSo4SpXh3Oxkku4YhKdE-59" value="Resolved?" style="rhombus;whiteSpace=wrap;html=1;" parent="mSo4SpXh3Oxkku4YhKdE-2" vertex="1">
          <mxGeometry x="1750" y="628.75" width="80" height="80" as="geometry" />
        </mxCell>
        <mxCell id="mSo4SpXh3Oxkku4YhKdE-61" value="Lambda&lt;br&gt;GitIssuesCRUD" style="outlineConnect=0;dashed=0;verticalLabelPosition=bottom;verticalAlign=top;align=center;html=1;shape=mxgraph.aws3.lambda_function;fillColor=#F58534;gradientColor=none;" parent="mSo4SpXh3Oxkku4YhKdE-2" vertex="1">
          <mxGeometry x="1279.75" y="633.25" width="69" height="70" as="geometry" />
        </mxCell>
        <mxCell id="mSo4SpXh3Oxkku4YhKdE-62" style="edgeStyle=orthogonalEdgeStyle;rounded=0;orthogonalLoop=1;jettySize=auto;html=1;" parent="mSo4SpXh3Oxkku4YhKdE-2" source="mSo4SpXh3Oxkku4YhKdE-63" target="mSo4SpXh3Oxkku4YhKdE-8" edge="1">
          <mxGeometry relative="1" as="geometry">
            <Array as="points">
              <mxPoint x="1860" y="510" />
              <mxPoint x="1860" y="240" />
            </Array>
          </mxGeometry>
        </mxCell>
        <mxCell id="mSo4SpXh3Oxkku4YhKdE-63" value="Lambda&lt;br&gt;GitPRCRUD" style="outlineConnect=0;dashed=0;verticalLabelPosition=bottom;verticalAlign=top;align=center;html=1;shape=mxgraph.aws3.lambda_function;fillColor=#F58534;gradientColor=none;" parent="mSo4SpXh3Oxkku4YhKdE-2" vertex="1">
          <mxGeometry x="1960" y="568.25" width="69" height="72" as="geometry" />
        </mxCell>
        <mxCell id="mSo4SpXh3Oxkku4YhKdE-64" value="Flag for Human Review" style="outlineConnect=0;dashed=0;verticalLabelPosition=bottom;verticalAlign=top;align=center;html=1;shape=mxgraph.aws3.lambda_function;fillColor=#F58534;gradientColor=none;" parent="mSo4SpXh3Oxkku4YhKdE-2" vertex="1">
          <mxGeometry x="1960" y="697.75" width="69" height="72" as="geometry" />
        </mxCell>
        <mxCell id="21-ClnMXErFcT0ocVqcD-5" style="edgeStyle=orthogonalEdgeStyle;rounded=0;orthogonalLoop=1;jettySize=auto;html=1;entryX=1;entryY=0.5;entryDx=0;entryDy=0;entryPerimeter=0;" parent="mSo4SpXh3Oxkku4YhKdE-2" source="mSo4SpXh3Oxkku4YhKdE-65" target="mSo4SpXh3Oxkku4YhKdE-8" edge="1">
          <mxGeometry relative="1" as="geometry">
            <Array as="points">
              <mxPoint x="1420" y="259" />
            </Array>
          </mxGeometry>
        </mxCell>
        <mxCell id="mSo4SpXh3Oxkku4YhKdE-65" value="Lambda&lt;br&gt;GitCodeMerge" style="outlineConnect=0;dashed=0;verticalLabelPosition=bottom;verticalAlign=top;align=center;html=1;shape=mxgraph.aws3.lambda_function;fillColor=#F58534;gradientColor=none;" parent="mSo4SpXh3Oxkku4YhKdE-2" vertex="1">
          <mxGeometry x="1392" y="633.75" width="69" height="70" as="geometry" />
        </mxCell>
        <mxCell id="mSo4SpXh3Oxkku4YhKdE-66" value="3. &lt;b&gt;Parse &amp;amp; Store Results&lt;/b&gt;" style="text;html=1;align=center;verticalAlign=middle;resizable=0;points=[];autosize=1;strokeColor=none;fillColor=none;" parent="mSo4SpXh3Oxkku4YhKdE-2" vertex="1">
          <mxGeometry x="405" y="586.5" width="160" height="30" as="geometry" />
        </mxCell>
        <mxCell id="mSo4SpXh3Oxkku4YhKdE-68" value="&lt;b&gt;5. Retrieve Source Code &lt;/b&gt;" style="text;whiteSpace=wrap;html=1;" parent="mSo4SpXh3Oxkku4YhKdE-2" vertex="1">
          <mxGeometry x="864.5" y="759.75" width="170" height="40" as="geometry" />
        </mxCell>
        <mxCell id="mSo4SpXh3Oxkku4YhKdE-69" value="6. &lt;b&gt;AI Analysis &amp;amp; Fix &lt;/b&gt;" style="text;whiteSpace=wrap;html=1;" parent="mSo4SpXh3Oxkku4YhKdE-2" vertex="1">
          <mxGeometry x="1060" y="857" width="140" height="40" as="geometry" />
        </mxCell>
        <mxCell id="mSo4SpXh3Oxkku4YhKdE-70" value="&lt;b&gt;7.&amp;nbsp;Apply Code Changes&lt;/b&gt;" style="text;whiteSpace=wrap;html=1;" parent="mSo4SpXh3Oxkku4YhKdE-2" vertex="1">
          <mxGeometry x="1239.25" y="769.75" width="150" height="40" as="geometry" />
        </mxCell>
        <mxCell id="mSo4SpXh3Oxkku4YhKdE-71" value="&lt;b&gt;9. Decision &amp;amp; PR Creation&lt;/b&gt;" style="text;whiteSpace=wrap;html=1;" parent="mSo4SpXh3Oxkku4YhKdE-2" vertex="1">
          <mxGeometry x="1709" y="584.25" width="180" height="40" as="geometry" />
        </mxCell>
        <mxCell id="mSo4SpXh3Oxkku4YhKdE-72" value="&lt;b&gt;10. Human Review &amp;amp; Merge&lt;/b&gt;" style="text;whiteSpace=wrap;html=1;" parent="mSo4SpXh3Oxkku4YhKdE-2" vertex="1">
          <mxGeometry x="1240" y="88" width="190" height="40" as="geometry" />
        </mxCell>
        <mxCell id="OeRLj1Lq7jxSstJOr_a3-0" value="Primary Account" style="points=[[0,0],[0.25,0],[0.5,0],[0.75,0],[1,0],[1,0.25],[1,0.5],[1,0.75],[1,1],[0.75,1],[0.5,1],[0.25,1],[0,1],[0,0.75],[0,0.5],[0,0.25]];outlineConnect=0;gradientColor=none;html=1;whiteSpace=wrap;fontSize=12;fontStyle=0;container=1;pointerEvents=0;collapsible=0;recursiveResize=0;shape=mxgraph.aws4.group;grIcon=mxgraph.aws4.group_account;strokeColor=#CD2264;fillColor=none;verticalAlign=top;align=left;spacingLeft=30;fontColor=#CD2264;dashed=0;" parent="mSo4SpXh3Oxkku4YhKdE-2" vertex="1">
          <mxGeometry x="52" y="410" width="2038" height="767" as="geometry" />
        </mxCell>
        <mxCell id="mSo4SpXh3Oxkku4YhKdE-14" value="CloudTrail&lt;br&gt;User Activity &amp;amp; API Calls" style="sketch=0;points=[[0,0,0],[0.25,0,0],[0.5,0,0],[0.75,0,0],[1,0,0],[0,1,0],[0.25,1,0],[0.5,1,0],[0.75,1,0],[1,1,0],[0,0.25,0],[0,0.5,0],[0,0.75,0],[1,0.25,0],[1,0.5,0],[1,0.75,0]];points=[[0,0,0],[0.25,0,0],[0.5,0,0],[0.75,0,0],[1,0,0],[0,1,0],[0.25,1,0],[0.5,1,0],[0.75,1,0],[1,1,0],[0,0.25,0],[0,0.5,0],[0,0.75,0],[1,0.25,0],[1,0.5,0],[1,0.75,0]];outlineConnect=0;fontColor=#232F3E;fillColor=#E7157B;strokeColor=#ffffff;dashed=0;verticalLabelPosition=bottom;verticalAlign=top;align=center;html=1;fontSize=12;fontStyle=0;aspect=fixed;shape=mxgraph.aws4.resourceIcon;resIcon=mxgraph.aws4.cloudtrail;" parent="OeRLj1Lq7jxSstJOr_a3-0" vertex="1">
          <mxGeometry x="1908" y="630" width="78" height="78" as="geometry" />
        </mxCell>
        <mxCell id="mSo4SpXh3Oxkku4YhKdE-13" value="CloudWatch&lt;br&gt;Lambda &amp;amp; Step Function Logs" style="sketch=0;points=[[0,0,0],[0.25,0,0],[0.5,0,0],[0.75,0,0],[1,0,0],[0,1,0],[0.25,1,0],[0.5,1,0],[0.75,1,0],[1,1,0],[0,0.25,0],[0,0.5,0],[0,0.75,0],[1,0.25,0],[1,0.5,0],[1,0.75,0]];points=[[0,0,0],[0.25,0,0],[0.5,0,0],[0.75,0,0],[1,0,0],[0,1,0],[0.25,1,0],[0.5,1,0],[0.75,1,0],[1,1,0],[0,0.25,0],[0,0.5,0],[0,0.75,0],[1,0.25,0],[1,0.5,0],[1,0.75,0]];outlineConnect=0;fontColor=#232F3E;fillColor=#E7157B;strokeColor=#ffffff;dashed=0;verticalLabelPosition=bottom;verticalAlign=top;align=center;html=1;fontSize=12;fontStyle=0;aspect=fixed;shape=mxgraph.aws4.resourceIcon;resIcon=mxgraph.aws4.cloudwatch_2;" parent="OeRLj1Lq7jxSstJOr_a3-0" vertex="1">
          <mxGeometry x="1718" y="630" width="78" height="78" as="geometry" />
        </mxCell>
        <mxCell id="mSo4SpXh3Oxkku4YhKdE-24" value="&lt;div&gt;DynamoDB&lt;/div&gt;&lt;div&gt;Findings Table&lt;/div&gt;" style="sketch=0;points=[[0,0,0],[0.25,0,0],[0.5,0,0],[0.75,0,0],[1,0,0],[0,1,0],[0.25,1,0],[0.5,1,0],[0.75,1,0],[1,1,0],[0,0.25,0],[0,0.5,0],[0,0.75,0],[1,0.25,0],[1,0.5,0],[1,0.75,0]];outlineConnect=0;fontColor=#232F3E;fillColor=#C925D1;strokeColor=#ffffff;dashed=0;verticalLabelPosition=bottom;verticalAlign=top;align=center;html=1;fontSize=12;fontStyle=0;aspect=fixed;shape=mxgraph.aws4.resourceIcon;resIcon=mxgraph.aws4.dynamodb;" parent="OeRLj1Lq7jxSstJOr_a3-0" vertex="1">
          <mxGeometry x="442.5" y="540" width="78" height="78" as="geometry" />
        </mxCell>
        <mxCell id="mSo4SpXh3Oxkku4YhKdE-12" value="&lt;div&gt;Lambda&lt;/div&gt;&lt;div&gt;CreateDynamoDBTable&lt;/div&gt;" style="outlineConnect=0;dashed=0;verticalLabelPosition=bottom;verticalAlign=top;align=center;html=1;shape=mxgraph.aws3.lambda_function;fillColor=#F58534;gradientColor=none;" parent="OeRLj1Lq7jxSstJOr_a3-0" vertex="1">
          <mxGeometry x="359" y="230" width="69" height="72" as="geometry" />
        </mxCell>
        <mxCell id="mSo4SpXh3Oxkku4YhKdE-11" style="edgeStyle=orthogonalEdgeStyle;rounded=0;orthogonalLoop=1;jettySize=auto;html=1;exitX=1;exitY=0.5;exitDx=0;exitDy=0;exitPerimeter=0;entryX=0.25;entryY=0;entryDx=0;entryDy=0;entryPerimeter=0;" parent="OeRLj1Lq7jxSstJOr_a3-0" source="mSo4SpXh3Oxkku4YhKdE-12" target="mSo4SpXh3Oxkku4YhKdE-24" edge="1">
          <mxGeometry relative="1" as="geometry">
            <Array as="points">
              <mxPoint x="462" y="266" />
            </Array>
          </mxGeometry>
        </mxCell>
        <mxCell id="mSo4SpXh3Oxkku4YhKdE-38" value="&lt;div&gt;Secrets Manager&lt;/div&gt;&lt;div&gt;Git Credentials&lt;/div&gt;" style="sketch=0;points=[[0,0,0],[0.25,0,0],[0.5,0,0],[0.75,0,0],[1,0,0],[0,1,0],[0.25,1,0],[0.5,1,0],[0.75,1,0],[1,1,0],[0,0.25,0],[0,0.5,0],[0,0.75,0],[1,0.25,0],[1,0.5,0],[1,0.75,0]];outlineConnect=0;fontColor=#232F3E;fillColor=#DD344C;strokeColor=#ffffff;dashed=0;verticalLabelPosition=bottom;verticalAlign=top;align=center;html=1;fontSize=12;fontStyle=0;aspect=fixed;shape=mxgraph.aws4.resourceIcon;resIcon=mxgraph.aws4.secrets_manager;" parent="OeRLj1Lq7jxSstJOr_a3-0" vertex="1">
          <mxGeometry x="410" y="30" width="78" height="78" as="geometry" />
        </mxCell>
        <mxCell id="21-ClnMXErFcT0ocVqcD-14" value="VPC" style="sketch=0;outlineConnect=0;gradientColor=none;html=1;whiteSpace=wrap;fontSize=12;fontStyle=0;shape=mxgraph.aws4.group;grIcon=mxgraph.aws4.group_vpc;strokeColor=#879196;fillColor=none;verticalAlign=top;align=left;spacingLeft=30;fontColor=#879196;dashed=0;" parent="OeRLj1Lq7jxSstJOr_a3-0" vertex="1">
          <mxGeometry x="328" y="200" width="402" height="140" as="geometry" />
        </mxCell>
        <mxCell id="mSo4SpXh3Oxkku4YhKdE-22" value="SSM-RunCommand" style="sketch=0;outlineConnect=0;fontColor=#232F3E;gradientColor=none;fillColor=#E7157B;strokeColor=none;dashed=0;verticalLabelPosition=bottom;verticalAlign=top;align=center;html=1;fontSize=12;fontStyle=0;aspect=fixed;pointerEvents=1;shape=mxgraph.aws4.run_command;" parent="OeRLj1Lq7jxSstJOr_a3-0" vertex="1">
          <mxGeometry x="228" y="220" width="78" height="55" as="geometry" />
        </mxCell>
        <mxCell id="mSo4SpXh3Oxkku4YhKdE-37" value="SSM-RunCommand" style="sketch=0;outlineConnect=0;fontColor=#232F3E;gradientColor=none;fillColor=#E7157B;strokeColor=none;dashed=0;verticalLabelPosition=bottom;verticalAlign=top;align=center;html=1;fontSize=12;fontStyle=0;aspect=fixed;pointerEvents=1;shape=mxgraph.aws4.run_command;" parent="OeRLj1Lq7jxSstJOr_a3-0" vertex="1">
          <mxGeometry x="1458" y="232.75" width="78" height="55" as="geometry" />
        </mxCell>
        <mxCell id="21-ClnMXErFcT0ocVqcD-16" value="VPC" style="sketch=0;outlineConnect=0;gradientColor=none;html=1;whiteSpace=wrap;fontSize=12;fontStyle=0;shape=mxgraph.aws4.group;grIcon=mxgraph.aws4.group_vpc;strokeColor=#879196;fillColor=none;verticalAlign=top;align=left;spacingLeft=30;fontColor=#879196;dashed=0;" parent="OeRLj1Lq7jxSstJOr_a3-0" vertex="1">
          <mxGeometry x="1558" y="154.75" width="452" height="238" as="geometry" />
        </mxCell>
        <mxCell id="mSo4SpXh3Oxkku4YhKdE-67" value="&lt;b&gt;4. Per-Finding Processing&lt;/b&gt;" style="text;html=1;align=center;verticalAlign=middle;resizable=0;points=[];autosize=1;strokeColor=none;fillColor=none;" parent="OeRLj1Lq7jxSstJOr_a3-0" vertex="1">
          <mxGeometry x="718" y="80" width="170" height="30" as="geometry" />
        </mxCell>
        <mxCell id="mSo4SpXh3Oxkku4YhKdE-42" value="Bedrock&lt;br&gt;LLM" style="sketch=0;points=[[0,0,0],[0.25,0,0],[0.5,0,0],[0.75,0,0],[1,0,0],[0,1,0],[0.25,1,0],[0.5,1,0],[0.75,1,0],[1,1,0],[0,0.25,0],[0,0.5,0],[0,0.75,0],[1,0.25,0],[1,0.5,0],[1,0.75,0]];outlineConnect=0;fontColor=#232F3E;fillColor=#01A88D;strokeColor=#ffffff;dashed=0;verticalLabelPosition=bottom;verticalAlign=top;align=center;html=1;fontSize=12;fontStyle=0;aspect=fixed;shape=mxgraph.aws4.resourceIcon;resIcon=mxgraph.aws4.sagemaker;" parent="OeRLj1Lq7jxSstJOr_a3-0" vertex="1">
          <mxGeometry x="967.75" y="477" width="78" height="78" as="geometry" />
        </mxCell>
        <mxCell id="mSo4SpXh3Oxkku4YhKdE-39" value="&lt;div&gt;S3&lt;/div&gt;&lt;div&gt;Invocation Logs&lt;/div&gt;" style="sketch=0;outlineConnect=0;fontColor=#232F3E;gradientColor=none;fillColor=#7AA116;strokeColor=none;dashed=0;verticalLabelPosition=bottom;verticalAlign=top;align=center;html=1;fontSize=12;fontStyle=0;aspect=fixed;pointerEvents=1;shape=mxgraph.aws4.bucket;" parent="OeRLj1Lq7jxSstJOr_a3-0" vertex="1">
          <mxGeometry x="868" y="607" width="75" height="78" as="geometry" />
        </mxCell>
        <mxCell id="mSo4SpXh3Oxkku4YhKdE-10" style="edgeStyle=orthogonalEdgeStyle;rounded=0;orthogonalLoop=1;jettySize=auto;html=1;" parent="OeRLj1Lq7jxSstJOr_a3-0" source="mSo4SpXh3Oxkku4YhKdE-42" target="mSo4SpXh3Oxkku4YhKdE-39" edge="1">
          <mxGeometry relative="1" as="geometry">
            <mxPoint x="953.5" y="506.05882352941217" as="sourcePoint" />
          </mxGeometry>
        </mxCell>
        <mxCell id="OeRLj1Lq7jxSstJOr_a3-1" value="Code Scanning Account" style="points=[[0,0],[0.25,0],[0.5,0],[0.75,0],[1,0],[1,0.25],[1,0.5],[1,0.75],[1,1],[0.75,1],[0.5,1],[0.25,1],[0,1],[0,0.75],[0,0.5],[0,0.25]];outlineConnect=0;gradientColor=none;html=1;whiteSpace=wrap;fontSize=12;fontStyle=0;container=1;pointerEvents=0;collapsible=0;recursiveResize=0;shape=mxgraph.aws4.group;grIcon=mxgraph.aws4.group_account;strokeColor=#CD2264;fillColor=none;verticalAlign=top;align=left;spacingLeft=30;fontColor=#CD2264;dashed=0;" parent="mSo4SpXh3Oxkku4YhKdE-2" vertex="1">
          <mxGeometry x="52" y="29" width="688" height="341" as="geometry" />
        </mxCell>
        <mxCell id="mSo4SpXh3Oxkku4YhKdE-15" value="Systems Manager" style="points=[[0,0],[0.25,0],[0.5,0],[0.75,0],[1,0],[1,0.25],[1,0.5],[1,0.75],[1,1],[0.75,1],[0.5,1],[0.25,1],[0,1],[0,0.75],[0,0.5],[0,0.25]];outlineConnect=0;gradientColor=none;html=1;whiteSpace=wrap;fontSize=12;fontStyle=0;container=1;pointerEvents=0;collapsible=0;recursiveResize=0;shape=mxgraph.aws4.group;grIcon=mxgraph.aws4.group_account;strokeColor=#CD2264;fillColor=default;verticalAlign=top;align=left;spacingLeft=30;fontColor=#CD2264;dashed=0;" parent="OeRLj1Lq7jxSstJOr_a3-1" vertex="1">
          <mxGeometry x="88" y="41" width="440" height="270" as="geometry" />
        </mxCell>
        <mxCell id="mSo4SpXh3Oxkku4YhKdE-16" value="EC2" style="sketch=0;points=[[0,0,0],[0.25,0,0],[0.5,0,0],[0.75,0,0],[1,0,0],[0,1,0],[0.25,1,0],[0.5,1,0],[0.75,1,0],[1,1,0],[0,0.25,0],[0,0.5,0],[0,0.75,0],[1,0.25,0],[1,0.5,0],[1,0.75,0]];outlineConnect=0;fontColor=#232F3E;fillColor=#ED7100;strokeColor=#ffffff;dashed=0;verticalLabelPosition=bottom;verticalAlign=top;align=center;html=1;fontSize=12;fontStyle=0;aspect=fixed;shape=mxgraph.aws4.resourceIcon;resIcon=mxgraph.aws4.ec2;" parent="mSo4SpXh3Oxkku4YhKdE-15" vertex="1">
          <mxGeometry x="322" y="150" width="78" height="78" as="geometry" />
        </mxCell>
        <mxCell id="mSo4SpXh3Oxkku4YhKdE-17" value="Fortify" style="shape=image;verticalLabelPosition=bottom;labelBackgroundColor=default;verticalAlign=top;aspect=fixed;imageAspect=0;image=data:image/png,iVBORw0KGgoAAAANSUhEUgAAAOAAAADgCAMAAAAt85rTAAAApVBMVEUaav////8QZ/89gP/A0f7J2f4kc/8NZv8AY/9kjt/i7P9Yjf84dvrS2+slcf9UiP4AXv/k6/R6neOSuP+buP/y9fmjvf9Bff9Ngv6Sr/8AYf/Y5f/6/P8fbv/O3f+zzP/y9/8AW//f6f/n8f+Aqf+ow//w9P97oe1nm/93ofpzoP+vxv9ilf8AWP/D1/+vyv5Wkv9cid67zPCNrf+Wsv+cuf91ofZJ5wenAAAHOUlEQVR4nO3de3uiOBQHYIyUsOgqM/VWBLGCrEXGdtd2v/9H2zqr4pWTo5FDePL7e8bnvE9IwiVNjMbt6SfRJHz+a9HqdpuVjXEjLpmYg7eh4Xo256zKuQkYheusbdicGQoErfPDdNjhauA2wemm44XnqYPbBMMbLzPOqQvGBsF7aarHEwc68ZApdWnuIsaL4ldbSZ4Y0Ok1Fbw2txHwmV1VW28TkDfLAnWbzwCB/tKwqUu8L0DzvXnUBd6bQt+qq/TV+TtFvkFH4cFll4LuF/6iLk5GrvqSdQ2az7gOHKfUlUnKFV9k1aP9rgFXHfWHz20uX5+j2vguAifdulyfxkXg1KpP+10COsM6+c6B/pq6JLk5A86DGnVA4xw4rs0EuM2pz62Z7wQY1WgC3OZkgKlb+50Aw5oNMJsczYDt+vmOgItb3i8xbttknwhxwHcXrfvGNbPPwdKkyhA05r4EeYvNuBd8PE+SxD+7WSgvIwSwh+MF7cykpP2OjwBO4NbOw9l6OSaE7YIA+mvxV7yMZSElKw8CGIlPEV4znFKqDoIApqJTBOusKUnHEQc6ohcoH61ISccRB64FG9DLqjC27CMMdASHUC+rSu/7P8LAF8ER5u1s5ptGM/P55x/l5u9/kMCZ4E3M+qT9/PFyMeSb9Wrlxh0ggaEQz42PfU4YD2nWdHlI4DQVeY730qPr0+8NO1QrZ7BAR+RH+bFvaXl0D49Y4EBgEmSt2eHQEr5SPhtjgQJ3acyaHPjGaSCl0FuDBI4FHnTd+aEP8+DxiCCBz/BdDM8OfE/kC5+QwBY8hgYHN2hP9GsvcMAx3AW9OB9BRW8KHhkccA4OGIcjaD+j9+GA0wV4hXbyJyTfqsLSNRQQvuR4K79AES82Hpg9sAHdgwVG48mCfs418wmiGh/XciA0A3SMhgmVzDr5CNqrhA8F9D+hTmV/7n2rajQgCjj9AMeY/Rzov1VhhDFwwASaBXn+lsKhvQPNgwHOoEbx8rtQkaeOUoIBPgFFHz5GVObzIQY4AP4Fazn7OQL/ee1BwQChF6I8f5FWlSEGB4RuBVhv91tT+LaorGCA0I1asNz91qQyXRAFhJrF2t9ov1dlksAB28X/gLX3g+iXvALvDQYINAsb7gfRdXUWQWGAQNiov/0pX+jtcDl5CDDJ6gns7n7KaVVmECUHPnyBEyGQcaPTfnisORWQt9Mv88/H5wcNkAXrScmfuEsFMmNZ+tquUoE2wQKTMoH8pXxfmUA2SuoNtGOKxZUlAq0nAl+JwIN3N/UE8pRkkVeJQJpFliUCKSYJDdRADdRADdRADdRADRQCfhbVUQMg6/6UHKE/sSnzlYXkv42wzSIYAVB2mAZqoKGBGvjAaKAGbqKBGviwaKAGbqKBGviwaKAGbqKBGviwaKAGbqKBGviwaKAGbqKBiPWirty8Vg340v8hN/0iGAHwS6Qe6SnxC2+vqA4N1EByoFF3YO1bUANVB+o+qIEaSAvUfVADNfBSoF3hlO+Dcd1bENpnSnkgtHeo8kBo40LV+6AP7bk1lAakacEI2BCbjRQHQjt+s5biwBDoYyyTBqTpgwOgfA4eeF3xFoyBQdT+VBvoQJu823O1geAO096TNCBJH5yDGzDPpAEpWjCBrlDWjpQGjqEG5NlUaSB4Xpv91ZAGJOiDPlT85jM4DNxtZFS9FgR3xd5sjgoC9/uLVg7YB/ccZl1HYeAUPlZ+s4mPNGDpfXAJr2rphBKBZbdgAm+KzYaRwkBoh/fv8EVDXWAksC299y4TWG4fjLoCGw57iUxgqS04fRPZzPWjoSwQepD/HW+lLDAUOdhju1umNGCJfTAUWtfJe75UYHktaAodLrc76QQDtIu2vuZlAZdih+fxxRQLTJujgjTn12uSmbng4Yed7XpacWCjX5xS9odNPgUPDtqfCIkAViDjhei6cTfc/helgKHw2aPM2v0fdYDTSeaKHyew3/JbGeAqDcTPu+Af+/141QAmq68AdehTPqSrAIzioWVg/irlcENlGBgR0vzEMeO2izz39+CkIRhotMMnmqxMcxC3Ag9/HrwXNxBAwyJKYDD7psPumZWggMrl+FQI6mrkh7/4tQae7rlPXY/ssM7JoQnUBcnO66BRayA/eyqlrkhuWHr2VEpdktSw7Py+krommWHBhXORqIuSGGaE574aAZl18bUXdVnSwpuX/yydui5Z4acTfM2AzLr22EpdmaSkV3cdp65MStj6+rFr1LXJyC+z4K06dXH3h3VO76/rBeTd4mMdqeu7N+7brNCnOJDzOfRRi7rEe8KDDD6TgrrI28PsUSjwTZK6zJvD27HQkSLUdd4Wxl9TR+yTMnWpt4RxK53ANFWBzG7Hwjz1gMzuDiaY9Q7UBWPCuOc2V8jjjKmLFg7jRvtjgP9YSV23UBi3g1Y6QPQ8VYDsm+a5RjdergRnBaWAQXv08e/z+yRK7lhF9R8TgeecbXt3FAAAAABJRU5ErkJggg==;" parent="mSo4SpXh3Oxkku4YhKdE-15" vertex="1">
          <mxGeometry x="324.5" y="20" width="75.5" height="75.5" as="geometry" />
        </mxCell>
        <mxCell id="mSo4SpXh3Oxkku4YhKdE-18" style="edgeStyle=orthogonalEdgeStyle;rounded=0;orthogonalLoop=1;jettySize=auto;html=1;" parent="mSo4SpXh3Oxkku4YhKdE-15" source="mSo4SpXh3Oxkku4YhKdE-19" target="mSo4SpXh3Oxkku4YhKdE-16" edge="1">
          <mxGeometry relative="1" as="geometry" />
        </mxCell>
        <mxCell id="mSo4SpXh3Oxkku4YhKdE-19" value="&lt;div&gt;SSM&amp;nbsp;Documents&lt;/div&gt;" style="sketch=0;outlineConnect=0;fontColor=#232F3E;gradientColor=none;fillColor=#E7157B;strokeColor=none;dashed=0;verticalLabelPosition=bottom;verticalAlign=top;align=center;html=1;fontSize=12;fontStyle=0;aspect=fixed;pointerEvents=1;shape=mxgraph.aws4.documents;" parent="mSo4SpXh3Oxkku4YhKdE-15" vertex="1">
          <mxGeometry x="180" y="150" width="64" height="78" as="geometry" />
        </mxCell>
        <mxCell id="21-ClnMXErFcT0ocVqcD-20" value="VPC" style="sketch=0;outlineConnect=0;gradientColor=none;html=1;whiteSpace=wrap;fontSize=12;fontStyle=0;shape=mxgraph.aws4.group;grIcon=mxgraph.aws4.group_vpc;strokeColor=#879196;fillColor=none;verticalAlign=top;align=left;spacingLeft=30;fontColor=#879196;dashed=0;" parent="mSo4SpXh3Oxkku4YhKdE-15" vertex="1">
          <mxGeometry x="290" y="124" width="142" height="130" as="geometry" />
        </mxCell>
        <mxCell id="OeRLj1Lq7jxSstJOr_a3-5" value="IAM Role&lt;br&gt;Cross-Account Permissions" style="sketch=0;outlineConnect=0;fontColor=#232F3E;gradientColor=none;fillColor=#DD344C;strokeColor=none;dashed=0;verticalLabelPosition=bottom;verticalAlign=top;align=center;html=1;fontSize=12;fontStyle=0;aspect=fixed;pointerEvents=1;shape=mxgraph.aws4.role;" parent="OeRLj1Lq7jxSstJOr_a3-1" vertex="1">
          <mxGeometry x="248" y="81" width="78" height="44" as="geometry" />
        </mxCell>
        <mxCell id="21-ClnMXErFcT0ocVqcD-6" style="edgeStyle=orthogonalEdgeStyle;rounded=0;orthogonalLoop=1;jettySize=auto;html=1;" parent="mSo4SpXh3Oxkku4YhKdE-2" source="mSo4SpXh3Oxkku4YhKdE-16" target="mSo4SpXh3Oxkku4YhKdE-38" edge="1">
          <mxGeometry relative="1" as="geometry" />
        </mxCell>
        <mxCell id="mSo4SpXh3Oxkku4YhKdE-20" style="edgeStyle=orthogonalEdgeStyle;rounded=0;orthogonalLoop=1;jettySize=auto;html=1;jumpStyle=gap;" parent="mSo4SpXh3Oxkku4YhKdE-2" source="mSo4SpXh3Oxkku4YhKdE-22" target="mSo4SpXh3Oxkku4YhKdE-19" edge="1">
          <mxGeometry relative="1" as="geometry">
            <Array as="points">
              <mxPoint x="330" y="464" />
              <mxPoint x="270" y="464" />
              <mxPoint x="270" y="259" />
            </Array>
          </mxGeometry>
        </mxCell>
        <mxCell id="mSo4SpXh3Oxkku4YhKdE-21" value="&lt;font style=&quot;font-size: 12px;&quot;&gt;&lt;b&gt;2. Fortify Scan&lt;/b&gt;&lt;/font&gt;" style="edgeLabel;html=1;align=center;verticalAlign=middle;resizable=0;points=[];" parent="mSo4SpXh3Oxkku4YhKdE-20" vertex="1" connectable="0">
          <mxGeometry x="0.2877" y="-2" relative="1" as="geometry">
            <mxPoint x="-2" y="100" as="offset" />
          </mxGeometry>
        </mxCell>
        <mxCell id="mSo4SpXh3Oxkku4YhKdE-27" style="edgeStyle=orthogonalEdgeStyle;rounded=0;orthogonalLoop=1;jettySize=auto;html=1;" parent="mSo4SpXh3Oxkku4YhKdE-2" source="mSo4SpXh3Oxkku4YhKdE-16" target="mSo4SpXh3Oxkku4YhKdE-8" edge="1">
          <mxGeometry relative="1" as="geometry">
            <mxPoint x="1142.3000000000002" y="260.00000000000045" as="targetPoint" />
            <Array as="points">
              <mxPoint x="889" y="239" />
              <mxPoint x="889" y="240" />
            </Array>
          </mxGeometry>
        </mxCell>
        <mxCell id="mSo4SpXh3Oxkku4YhKdE-28" value="Push Results" style="edgeLabel;html=1;align=center;verticalAlign=middle;resizable=0;points=[];" parent="mSo4SpXh3Oxkku4YhKdE-27" vertex="1" connectable="0">
          <mxGeometry x="-0.1653" y="-3" relative="1" as="geometry">
            <mxPoint as="offset" />
          </mxGeometry>
        </mxCell>
        <mxCell id="mSo4SpXh3Oxkku4YhKdE-47" style="edgeStyle=orthogonalEdgeStyle;rounded=0;orthogonalLoop=1;jettySize=auto;html=1;jumpStyle=arc;" parent="mSo4SpXh3Oxkku4YhKdE-2" source="mSo4SpXh3Oxkku4YhKdE-37" target="mSo4SpXh3Oxkku4YhKdE-19" edge="1">
          <mxGeometry relative="1" as="geometry">
            <Array as="points">
              <mxPoint x="1550" y="390" />
              <mxPoint x="410" y="390" />
              <mxPoint x="410" y="280" />
            </Array>
          </mxGeometry>
        </mxCell>
        <mxCell id="mSo4SpXh3Oxkku4YhKdE-48" value="&lt;b style=&quot;font-size: 12px;&quot;&gt;8. Verification Scan&lt;/b&gt;" style="edgeLabel;html=1;align=center;verticalAlign=middle;resizable=0;points=[];" parent="mSo4SpXh3Oxkku4YhKdE-47" vertex="1" connectable="0">
          <mxGeometry x="0.4985" y="2" relative="1" as="geometry">
            <mxPoint x="960" y="48" as="offset" />
          </mxGeometry>
        </mxCell>
        <mxCell id="mSo4SpXh3Oxkku4YhKdE-23" value="Users" style="sketch=0;outlineConnect=0;fontColor=#232F3E;gradientColor=none;strokeColor=#232F3E;fillColor=#ffffff;dashed=0;verticalLabelPosition=bottom;verticalAlign=top;align=center;html=1;fontSize=12;fontStyle=0;aspect=fixed;shape=mxgraph.aws4.resourceIcon;resIcon=mxgraph.aws4.users;" parent="mSo4SpXh3Oxkku4YhKdE-1" vertex="1">
          <mxGeometry x="-560" y="667.5" width="60" height="60" as="geometry" />
        </mxCell>
        <mxCell id="mSo4SpXh3Oxkku4YhKdE-53" style="edgeStyle=orthogonalEdgeStyle;rounded=0;orthogonalLoop=1;jettySize=auto;html=1;" parent="mSo4SpXh3Oxkku4YhKdE-1" source="mSo4SpXh3Oxkku4YhKdE-23" target="mSo4SpXh3Oxkku4YhKdE-22" edge="1">
          <mxGeometry relative="1" as="geometry">
            <mxPoint x="-199.99999999999955" y="745.9999999999998" as="targetPoint" />
            <mxPoint x="-295.0066391265864" y="746" as="sourcePoint" />
          </mxGeometry>
        </mxCell>
        <mxCell id="mSo4SpXh3Oxkku4YhKdE-54" value="&lt;font style=&quot;font-size: 12px;&quot;&gt;&lt;b&gt;1. Manual Trigger&lt;/b&gt;&lt;/font&gt;" style="edgeLabel;html=1;align=center;verticalAlign=middle;resizable=0;points=[];" parent="mSo4SpXh3Oxkku4YhKdE-53" vertex="1" connectable="0">
          <mxGeometry x="0.0428" y="-1" relative="1" as="geometry">
            <mxPoint x="-16" y="-1" as="offset" />
          </mxGeometry>
        </mxCell>
        <mxCell id="hJH79LYfBog7g-wVBzW--1" value="VPC" style="sketch=0;outlineConnect=0;gradientColor=none;html=1;whiteSpace=wrap;fontSize=12;fontStyle=0;shape=mxgraph.aws4.group;grIcon=mxgraph.aws4.group_vpc;strokeColor=#879196;fillColor=none;verticalAlign=top;align=left;spacingLeft=30;fontColor=#879196;dashed=0;" parent="mSo4SpXh3Oxkku4YhKdE-1" vertex="1">
          <mxGeometry x="370" y="652.75" width="632" height="150" as="geometry" />
        </mxCell>
      </root>
    </mxGraphModel>
  </diagram>
</mxfile>
